<svg width="18" height="16" viewBox="0 0 18 16" fill="none" xmlns="http://www.w3.org/2000/svg">
<path d="M0 16V13.2C0 12.6333 0.145833 12.1125 0.4375 11.6375C0.729167 11.1625 1.11667 10.8 1.6 10.55C2.63333 10.0333 3.68333 9.64583 4.75 9.3875C5.81667 9.12917 6.9 9 8 9H8.35C8.16667 9.3 8.02917 9.62083 7.9375 9.9625C7.84583 10.3042 7.8 10.65 7.8 11C6.9 11.0167 6.00417 11.1375 5.1125 11.3625C4.22083 11.5875 3.35 11.9167 2.5 12.35C2.35 12.4333 2.22917 12.55 2.1375 12.7C2.04583 12.85 2 13.0167 2 13.2V14H9.075L11.075 16H0ZM8 8C6.9 8 5.95833 7.60833 5.175 6.825C4.39167 6.04167 4 5.1 4 4C4 2.9 4.39167 1.95833 5.175 1.175C5.95833 0.391667 6.9 0 8 0C9.1 0 10.0417 0.391667 10.825 1.175C11.6083 1.95833 12 2.9 12 4C12 5.1 11.6083 6.04167 10.825 6.825C10.0417 7.60833 9.1 8 8 8ZM8 6C8.55 6 9.02083 5.80417 9.4125 5.4125C9.80417 5.02083 10 4.55 10 4C10 3.45 9.80417 2.97917 9.4125 2.5875C9.02083 2.19583 8.55 2 8 2C7.45 2 6.97917 2.19583 6.5875 2.5875C6.19583 2.97917 6 3.45 6 4C6 4.55 6.19583 5.02083 6.5875 5.4125C6.97917 5.80417 7.45 6 8 6ZM13.9 16L10.4 12.5C10.1833 12.2833 10.0292 12.05 9.9375 11.8C9.84583 11.55 9.8 11.3 9.8 11.05C9.8 10.5167 9.99167 10.0417 10.375 9.625C10.7583 9.20833 11.25 9 11.85 9C12.3167 9 12.6833 9.10833 12.95 9.325C13.2167 9.54167 13.5333 9.83333 13.9 10.2C14.2333 9.86667 14.5375 9.58333 14.8125 9.35C15.0875 9.11667 15.4667 9 15.95 9C16.5667 9 17.0625 9.2125 17.4375 9.6375C17.8125 10.0625 18 10.5417 18 11.075C18 11.325 17.95 11.575 17.85 11.825C17.75 12.075 17.6 12.3 17.4 12.5L13.9 16Z" fill="#09B558"/>
</svg>
