<svg width="38" height="38" viewBox="0 0 38 38" fill="none" xmlns="http://www.w3.org/2000/svg">
<path d="M7.21875 28.3125C8.8125 27.0938 10.5938 26.1328 12.5625 25.4297C14.5312 24.7266 16.5938 24.375 18.75 24.375C20.9062 24.375 22.9688 24.7266 24.9375 25.4297C26.9062 26.1328 28.6875 27.0938 30.2812 28.3125C31.375 27.0312 32.2266 25.5781 32.8359 23.9531C33.4453 22.3281 33.75 20.5938 33.75 18.75C33.75 14.5938 32.2891 11.0547 29.3672 8.13281C26.4453 5.21094 22.9062 3.75 18.75 3.75C14.5938 3.75 11.0547 5.21094 8.13281 8.13281C5.21094 11.0547 3.75 14.5938 3.75 18.75C3.75 20.5938 4.05469 22.3281 4.66406 23.9531C5.27344 25.5781 6.125 27.0312 7.21875 28.3125ZM18.75 20.625C16.9062 20.625 15.3516 19.9922 14.0859 18.7266C12.8203 17.4609 12.1875 15.9062 12.1875 14.0625C12.1875 12.2188 12.8203 10.6641 14.0859 9.39844C15.3516 8.13281 16.9062 7.5 18.75 7.5C20.5938 7.5 22.1484 8.13281 23.4141 9.39844C24.6797 10.6641 25.3125 12.2188 25.3125 14.0625C25.3125 15.9062 24.6797 17.4609 23.4141 18.7266C22.1484 19.9922 20.5938 20.625 18.75 20.625ZM18.75 37.5C16.1562 37.5 13.7188 37.0078 11.4375 36.0234C9.15625 35.0391 7.17188 33.7031 5.48438 32.0156C3.79688 30.3281 2.46094 28.3438 1.47656 26.0625C0.492188 23.7812 0 21.3438 0 18.75C0 16.1562 0.492188 13.7188 1.47656 11.4375C2.46094 9.15625 3.79688 7.17188 5.48438 5.48438C7.17188 3.79688 9.15625 2.46094 11.4375 1.47656C13.7188 0.492188 16.1562 0 18.75 0C21.3438 0 23.7812 0.492188 26.0625 1.47656C28.3438 2.46094 30.3281 3.79688 32.0156 5.48438C33.7031 7.17188 35.0391 9.15625 36.0234 11.4375C37.0078 13.7188 37.5 16.1562 37.5 18.75C37.5 21.3438 37.0078 23.7812 36.0234 26.0625C35.0391 28.3438 33.7031 30.3281 32.0156 32.0156C30.3281 33.7031 28.3438 35.0391 26.0625 36.0234C23.7812 37.0078 21.3438 37.5 18.75 37.5ZM18.75 33.75C20.4062 33.75 21.9688 33.5078 23.4375 33.0234C24.9062 32.5391 26.25 31.8438 27.4688 30.9375C26.25 30.0312 24.9062 29.3359 23.4375 28.8516C21.9688 28.3672 20.4062 28.125 18.75 28.125C17.0938 28.125 15.5312 28.3672 14.0625 28.8516C12.5938 29.3359 11.25 30.0312 10.0312 30.9375C11.25 31.8438 12.5938 32.5391 14.0625 33.0234C15.5312 33.5078 17.0938 33.75 18.75 33.75ZM18.75 16.875C19.5625 16.875 20.2344 16.6094 20.7656 16.0781C21.2969 15.5469 21.5625 14.875 21.5625 14.0625C21.5625 13.25 21.2969 12.5781 20.7656 12.0469C20.2344 11.5156 19.5625 11.25 18.75 11.25C17.9375 11.25 17.2656 11.5156 16.7344 12.0469C16.2031 12.5781 15.9375 13.25 15.9375 14.0625C15.9375 14.875 16.2031 15.5469 16.7344 16.0781C17.2656 16.6094 17.9375 16.875 18.75 16.875Z" fill="#09B558" fill-opacity="0.25"/>
</svg>
